<svg width="147" height="32" fill="none" xmlns="http://www.w3.org/2000/svg"><path d="M3.219 8a.922.922 0 100-1.843.922.922 0 000 1.843z" fill="#000"/><path d="M16.454 30.771c8.497 0 15.386-6.888 15.386-15.385C31.84 6.888 24.95 0 16.454 0S1.07 6.888 1.07 15.386c0 8.497 6.888 15.385 15.385 15.385z" fill="url(#paint0_linear_743_16899)"/><path d="M5.069 1.229a.307.307 0 100-.615.307.307 0 000 .615zM27.84 29.542a.307.307 0 100-.614.307.307 0 000 .614z" fill="#000"/><path fill-rule="evenodd" clip-rule="evenodd" d="M58.528 20.531v2.439l2.4-2.4-2.4-.039z" fill="#FC0"/><path d="M39.737 26.278l2.016-4.038 2.016 4.038h-4.032zm-4.576 4.493h2.33l1.632-3.257h5.274l1.632 3.257h2.33l-5.12-10.24h-2.951l-5.127 10.24zm18.969 0h2.484l6.829-7.603v7.603h2.323v-10.24H63.29l-6.828 7.61v-7.61h-2.33v10.24zm16.295-8.921H75.7v8.921h2.33V21.85h5.273v-1.32H70.425v1.319zm17.536 8.921h2.484l6.828-7.597v7.597h2.324v-10.24H97.12l-6.835 7.603v-7.603H87.96v10.24zm16.295-8.921h5.273v8.921h2.33V21.85h5.274v-1.32h-12.877v1.319zm19.161 4.428l2.016-4.038 2.016 4.038h-4.032zm-4.576 4.493h2.33l1.632-3.257h5.274l1.632 3.257h2.329l-5.12-10.24h-2.95l-5.127 10.24zm16.295-6.278c0 2.093 1.862 2.093 3.725 2.093h5.587v4.192h2.323v-10.24h-2.323v4.736h-6.055c-.467 0-.934 0-.934-.544v-4.192h-2.323v3.955zM46.291 14.458h-3.36l-.723 1.612h-.672l2.758-6.035h.628l2.758 6.035h-.672l-.717-1.612zm-.237-.519l-1.446-3.245-1.447 3.245h2.893zm8.819-3.354h-3.219l.013 5.479h-.634v-6.036h3.84v.557zm7.552 4.928v.55h-4.262v-6.035h4.135v.557h-3.501v2.144h3.123v.544h-3.123v2.24h3.629zm8.653-5.485v6.036h-.627V13.28h-3.776v2.784h-.64v-6.036h.64v2.695h3.776v-2.695h.627zm8.18.557h-2.119v5.479h-.633v-5.479h-2.119v-.557h4.87v.557zm2.713 2.465c0-1.767 1.344-3.072 3.162-3.072.877 0 1.67.294 2.208.876l-.403.404c-.493-.5-1.095-.717-1.786-.717-1.46 0-2.554 1.069-2.554 2.502 0 1.434 1.095 2.503 2.554 2.503.691 0 1.293-.218 1.786-.724l.403.404c-.538.588-1.325.89-2.215.89-1.81 0-3.155-1.3-3.155-3.066zm12.755-2.465h-2.124v5.479h-.628v-5.479h-2.118v-.557h4.87v.557zm8.173 3.853c0 1.037-.736 1.632-2.189 1.632h-2.675v-6.035h2.509c1.267 0 2.054.538 2.054 1.543 0 .697-.377 1.158-.985 1.382.851.166 1.286.672 1.286 1.478zm-4.23-1.676h1.843c.922 0 1.446-.378 1.446-1.114 0-.723-.524-1.114-1.446-1.114h-1.843v2.228zm3.603 1.632c0-.788-.544-1.14-1.562-1.14h-2.041v2.304h2.041c1.018 0 1.562-.37 1.562-1.164zm3.891-1.344c0-1.76 1.344-3.072 3.174-3.072 1.812 0 3.162 1.299 3.162 3.072 0 1.772-1.35 3.072-3.162 3.072-1.83-.007-3.174-1.313-3.174-3.072zm5.702 0c0-1.44-1.075-2.503-2.528-2.503-1.459 0-2.54 1.063-2.54 2.502 0 1.44 1.088 2.503 2.54 2.503 1.447-.006 2.528-1.063 2.528-2.502z" fill="#fff"/><defs><linearGradient id="paint0_linear_743_16899" x1="27.335" y1="4.507" x2="5.574" y2="26.268" gradientUnits="userSpaceOnUse"><stop/><stop offset=".6"/><stop offset="1" stop-color="#333"/></linearGradient></defs></svg>